<svg id="svg" version="1.1" xmlns="http://www.w3.org/2000/svg" xmlns:xlink="http://www.w3.org/1999/xlink" width="400" height="404.8192771084337" viewBox="0, 0, 400,404.8192771084337"><g id="svgg"><path id="path0" d="M39.299 128.500 L 39.400 247.000 57.379 247.104 C 71.152 247.184,75.432 247.324,75.673 247.704 C 75.846 247.977,75.991 258.040,75.994 270.067 C 75.997 282.094,76.109 292.219,76.243 292.567 C 76.463 293.142,87.216 293.200,194.053 293.200 L 311.620 293.200 312.010 292.174 C 312.460 290.991,312.491 36.416,312.042 34.800 L 311.764 33.800 292.782 33.600 L 273.800 33.400 273.694 21.700 L 273.588 10.000 156.393 10.000 L 39.199 10.000 39.299 128.500 M194.200 34.667 C 221.145 40.926,239.267 59.218,245.848 86.800 C 246.882 91.133,246.891 107.156,245.861 111.800 C 244.730 116.902,242.077 124.663,240.155 128.490 L 238.382 132.019 239.347 132.983 C 239.877 133.513,241.006 134.064,241.855 134.207 C 247.098 135.088,256.622 139.068,263.200 143.128 C 294.983 162.744,308.255 200.917,295.661 236.500 C 287.759 258.829,267.330 278.015,244.848 284.223 C 243.665 284.549,242.571 284.894,242.417 284.989 C 241.481 285.568,233.323 286.838,228.400 287.172 C 216.881 287.952,121.241 288.180,115.963 287.440 C 102.866 285.604,93.176 276.938,90.533 264.697 C 89.170 258.382,88.901 65.993,90.245 58.002 C 92.289 45.841,101.037 36.723,113.400 33.866 C 116.553 33.137,190.783 33.873,194.200 34.667 M86.601 308.630 C 83.859 310.060,82.742 312.495,83.567 315.247 C 85.407 321.387,94.372 320.090,94.394 313.680 C 94.408 309.503,90.181 306.764,86.601 308.630 M167.594 308.963 C 166.161 309.224,164.766 309.574,164.494 309.742 C 163.652 310.262,163.789 356.633,164.633 356.957 C 164.981 357.091,166.858 357.200,168.804 357.200 C 173.726 357.200,173.600 357.394,173.600 349.795 C 173.600 343.192,173.842 342.405,175.365 344.050 C 177.001 345.818,181.416 351.786,182.913 354.254 C 183.806 355.725,184.761 356.804,185.301 356.948 C 187.140 357.441,194.281 357.225,194.749 356.662 C 195.529 355.722,190.756 348.456,184.986 341.800 C 183.652 340.260,182.428 338.783,182.267 338.518 C 182.084 338.216,184.223 335.559,187.987 331.414 C 195.639 322.987,195.639 323.002,187.969 323.262 L 183.897 323.400 182.049 325.445 C 175.706 332.463,174.602 333.600,174.127 333.600 C 173.703 333.600,173.599 331.312,173.595 321.900 C 173.587 306.698,174.091 307.783,167.594 308.963 M46.000 313.750 C 44.350 313.998,42.775 314.346,42.500 314.524 C 41.771 314.996,41.771 356.121,42.500 356.698 C 44.082 357.949,58.760 358.429,64.118 357.403 C 77.183 354.903,81.184 341.993,71.281 334.290 L 70.369 333.581 71.931 331.690 C 76.428 326.250,74.738 318.654,68.333 315.518 C 63.932 313.363,53.888 312.568,46.000 313.750 M106.718 313.953 C 101.931 314.842,102.339 313.076,102.500 332.241 C 102.673 352.725,102.915 353.695,108.590 356.596 C 111.362 358.013,119.008 358.332,122.200 357.165 L 123.800 356.579 123.699 353.403 C 123.567 349.230,123.271 348.925,119.987 349.571 C 113.392 350.868,111.981 349.165,111.694 339.560 C 111.443 331.174,111.142 331.600,117.334 331.600 C 123.281 331.600,123.200 331.659,123.200 327.334 C 123.200 323.199,123.202 323.200,116.873 323.200 C 111.249 323.200,111.614 323.592,111.605 317.543 C 111.601 314.043,111.139 312.565,110.267 313.253 C 110.230 313.282,108.633 313.597,106.718 313.953 M257.123 313.752 C 255.431 314.009,253.901 314.365,253.723 314.543 C 252.996 315.269,253.121 355.864,253.853 356.596 C 254.577 357.320,262.354 357.381,263.068 356.668 C 263.250 356.485,263.490 353.335,263.600 349.668 L 263.800 343.000 268.200 342.757 C 279.941 342.110,285.623 338.311,286.749 330.357 C 288.599 317.280,276.930 310.740,257.123 313.752 M61.682 322.016 C 65.445 323.061,65.925 327.753,62.445 329.477 C 60.548 330.417,52.481 330.770,51.952 329.937 C 51.564 329.323,51.476 323.188,51.843 322.233 C 52.133 321.476,59.178 321.321,61.682 322.016 M272.440 322.054 C 276.757 323.497,278.133 329.040,274.961 332.212 C 273.349 333.824,270.611 334.518,266.600 334.331 L 263.800 334.200 263.689 328.418 C 263.627 325.239,263.667 322.404,263.776 322.118 C 264.032 321.452,270.496 321.404,272.440 322.054 M133.822 323.045 C 130.165 323.771,130.174 323.758,130.685 327.628 C 131.222 331.701,131.322 331.800,134.257 331.177 C 141.686 329.598,146.796 331.440,146.324 335.527 L 146.200 336.600 141.000 336.820 C 132.336 337.187,128.570 339.380,127.193 344.858 C 125.908 349.972,128.854 355.212,134.078 357.101 C 137.880 358.476,153.166 357.903,155.100 356.313 C 155.914 355.644,155.800 333.633,154.968 330.773 C 152.894 323.649,145.109 320.804,133.822 323.045 M208.600 323.036 C 200.769 325.874,196.884 332.084,197.292 341.114 C 197.482 345.318,197.654 346.030,199.332 349.536 C 204.143 359.588,219.667 361.055,226.120 352.068 C 236.278 337.922,223.940 317.477,208.600 323.036 M297.415 323.046 C 293.592 323.805,293.461 323.984,294.044 327.630 C 294.599 331.100,294.980 331.742,296.288 331.414 C 303.366 329.637,308.254 330.644,309.584 334.153 C 310.490 336.545,310.050 336.800,305.015 336.800 C 295.504 336.800,290.400 340.391,290.400 347.083 C 290.400 356.003,299.029 359.817,313.749 357.404 C 318.433 356.637,318.756 356.513,319.040 355.382 C 319.637 353.006,318.943 331.855,318.203 329.838 C 315.894 323.548,307.954 320.954,297.415 323.046 M85.100 323.476 C 84.076 323.743,84.010 356.565,85.033 356.957 C 85.855 357.273,92.145 357.273,92.967 356.957 C 93.530 356.741,93.600 354.890,93.600 340.204 L 93.600 323.693 92.700 323.452 C 91.683 323.179,86.168 323.197,85.100 323.476 M323.498 323.633 C 322.671 324.115,322.700 324.275,324.825 330.800 C 327.051 337.640,329.177 343.117,332.143 349.662 C 335.140 356.275,335.102 356.099,333.948 357.993 C 332.372 360.579,330.306 361.396,326.792 360.824 C 324.026 360.374,323.802 360.583,323.010 364.352 C 322.158 368.405,323.222 369.200,329.506 369.200 C 337.379 369.200,341.722 364.048,347.859 347.427 C 348.433 345.872,349.439 343.160,350.093 341.400 C 351.462 337.721,354.101 329.689,355.067 326.263 C 355.900 323.311,355.770 323.214,350.989 323.206 C 346.757 323.199,345.826 323.648,345.418 325.890 C 344.336 331.829,340.205 344.529,339.434 344.285 C 338.832 344.095,333.200 327.092,333.200 325.464 C 333.200 323.470,326.083 322.128,323.498 323.633 M216.684 331.586 C 222.484 335.122,220.583 348.618,214.113 349.841 C 208.522 350.898,204.653 341.114,207.960 334.282 C 209.565 330.967,213.615 329.715,216.684 331.586 M62.245 339.253 C 66.581 340.345,67.998 344.915,64.893 347.794 C 62.761 349.771,53.017 350.821,51.983 349.186 C 51.562 348.520,51.458 339.475,51.867 339.067 C 52.310 338.624,60.317 338.768,62.245 339.253 M146.051 343.463 C 146.941 344.536,146.755 348.747,145.785 349.478 C 144.847 350.185,140.037 350.006,138.327 349.201 C 135.769 347.997,136.013 344.580,138.737 343.449 C 140.804 342.590,145.335 342.599,146.051 343.463 M309.226 343.214 C 310.076 343.669,310.363 348.007,309.621 349.179 C 308.404 351.104,300.726 349.638,300.157 347.373 C 299.307 343.986,305.425 341.180,309.226 343.214 " stroke="none" fill="#f6f8fa" fill-rule="evenodd"></path><path id="path1" d="M0.000 202.400 L 0.000 404.800 2.580 404.800 C 4.621 404.800,5.242 404.654,5.553 404.100 C 5.927 403.433,5.959 403.433,6.216 404.100 C 6.472 404.765,15.066 404.800,178.917 404.800 L 351.348 404.800 352.274 403.930 L 353.200 403.061 353.200 403.930 L 353.200 404.800 376.600 404.800 L 400.000 404.800 400.000 202.400 L 400.000 0.000 200.000 0.000 L 0.000 0.000 0.000 202.400 M274.094 21.100 L 274.200 32.600 293.315 32.800 C 309.721 32.972,312.483 33.085,312.810 33.600 C 313.453 34.615,313.125 293.035,312.480 293.680 C 311.800 294.360,79.268 294.665,76.758 293.989 L 75.207 293.571 75.103 270.885 L 75.000 248.200 57.236 248.096 C 44.932 248.024,39.307 247.855,38.936 247.547 C 38.490 247.177,38.400 227.108,38.400 128.351 L 38.400 9.600 156.194 9.600 L 273.988 9.600 274.094 21.100 M116.800 35.073 C 101.119 37.642,92.093 47.512,91.442 62.800 C 90.977 73.717,91.038 112.122,91.523 113.815 C 93.498 120.713,101.750 128.145,110.400 130.816 C 113.938 131.908,113.772 131.907,164.800 131.202 C 198.331 130.738,226.891 131.100,232.905 132.063 C 235.554 132.488,236.093 132.476,236.573 131.980 C 237.658 130.860,240.809 124.110,241.805 120.772 C 242.358 118.917,243.066 116.859,243.378 116.198 C 245.622 111.437,246.227 94.623,244.443 86.600 C 240.265 67.813,227.743 50.743,212.347 42.846 C 210.668 41.985,208.868 41.004,208.347 40.666 C 205.923 39.093,196.794 36.508,189.800 35.413 C 186.037 34.824,120.192 34.517,116.800 35.073 M92.735 308.354 C 97.948 312.065,95.457 320.000,89.079 320.000 C 84.868 320.000,82.400 317.665,82.400 313.679 C 82.400 308.480,88.499 305.338,92.735 308.354 M174.062 308.086 C 174.241 308.369,174.399 313.910,174.412 320.400 L 174.437 332.200 178.918 327.492 L 183.400 322.785 189.020 322.792 C 197.518 322.804,197.495 322.902,186.261 334.676 C 182.754 338.352,182.809 338.096,185.000 340.480 C 189.827 345.731,196.000 354.695,196.000 356.452 C 196.000 357.671,194.641 358.000,189.607 358.000 C 184.260 358.000,183.726 357.758,182.102 354.600 C 181.336 353.110,176.301 346.396,175.207 345.406 C 174.401 344.677,174.400 344.685,174.400 350.715 C 174.400 358.192,174.553 358.000,168.587 358.000 C 165.990 358.000,164.311 357.822,163.872 357.500 C 162.895 356.782,163.020 309.284,164.000 308.776 C 166.397 307.535,173.407 307.054,174.062 308.086 M64.365 313.045 C 74.471 315.960,78.607 324.773,73.121 331.700 L 71.866 333.285 73.738 335.004 C 76.557 337.592,77.403 339.772,77.386 344.400 C 77.359 351.509,73.849 355.782,66.200 358.018 C 62.210 359.184,44.332 358.848,41.928 357.561 C 41.040 357.086,40.768 314.315,41.649 313.770 C 44.005 312.314,60.055 311.801,64.365 313.045 M112.276 312.900 C 112.454 313.175,112.690 315.470,112.800 318.000 L 113.000 322.600 118.400 322.800 L 123.800 323.000 123.915 327.165 C 124.058 332.356,124.280 332.156,118.082 332.400 L 113.000 332.600 113.000 339.690 C 113.000 348.819,113.815 349.856,119.915 348.491 C 123.969 347.583,124.185 347.850,125.058 354.816 C 125.436 357.830,122.229 359.026,114.608 358.712 C 108.102 358.443,105.057 356.707,102.837 352.000 L 101.800 349.800 101.800 332.044 C 101.800 316.663,101.880 314.247,102.400 313.982 C 104.731 312.793,111.712 312.028,112.276 312.900 M276.525 313.383 C 284.675 315.914,287.827 320.065,287.779 328.200 C 287.722 337.896,280.601 343.600,268.554 343.600 L 264.400 343.600 264.400 350.177 C 264.400 358.303,264.633 358.000,258.387 358.000 C 251.947 358.000,252.620 360.439,252.489 336.630 C 252.362 313.392,252.291 314.058,255.019 313.118 C 258.443 311.938,272.429 312.110,276.525 313.383 M149.600 322.930 C 155.643 326.026,156.783 329.654,156.786 345.800 C 156.789 358.784,157.348 358.194,144.600 358.659 C 133.298 359.071,128.804 357.233,126.690 351.335 C 123.568 342.626,129.388 336.113,140.595 335.775 C 145.714 335.620,146.110 335.438,145.006 333.754 C 143.562 331.549,141.841 331.331,133.152 332.252 C 130.469 332.536,130.475 332.543,129.754 328.450 C 129.122 324.866,129.101 324.376,129.550 323.667 C 130.997 321.385,145.541 320.850,149.600 322.930 M220.259 322.850 C 230.029 326.917,233.785 340.269,228.093 350.697 C 221.841 362.151,203.533 361.480,198.346 349.607 C 197.912 348.613,197.399 347.440,197.208 347.000 C 197.016 346.560,196.662 344.760,196.421 343.000 C 194.403 328.263,207.226 317.425,220.259 322.850 M313.218 323.086 C 319.153 325.981,320.402 329.971,320.398 346.027 C 320.395 357.853,320.646 357.405,313.471 358.376 C 299.428 360.278,291.510 357.475,289.970 350.058 C 288.168 341.377,293.364 336.086,304.000 335.773 C 309.016 335.625,309.514 335.349,308.247 333.416 C 307.017 331.538,304.780 331.311,296.716 332.244 C 294.565 332.493,294.411 332.453,294.066 331.554 C 292.841 328.370,292.425 323.890,293.300 323.324 C 296.611 321.181,309.010 321.033,313.218 323.086 M53.100 322.627 C 52.935 322.796,52.800 324.433,52.800 326.267 L 52.800 329.600 55.900 329.568 C 66.039 329.463,67.235 322.953,57.200 322.495 C 55.110 322.399,53.265 322.459,53.100 322.627 M264.667 322.667 C 264.520 322.813,264.400 325.333,264.400 328.267 L 264.400 333.600 266.500 333.583 C 272.763 333.530,275.600 331.799,275.600 328.028 C 275.600 324.906,274.474 323.454,271.571 322.831 C 269.341 322.353,265.082 322.251,264.667 322.667 M94.386 323.574 C 95.276 325.237,94.920 356.280,94.000 357.200 C 92.939 358.261,85.540 358.394,84.089 357.377 L 83.200 356.755 83.200 340.257 C 83.200 327.959,83.322 323.638,83.680 323.280 C 84.580 322.380,93.884 322.636,94.386 323.574 M333.349 323.118 C 333.458 323.293,333.907 324.778,334.348 326.418 C 334.789 328.058,335.337 329.940,335.565 330.600 C 336.145 332.277,337.501 336.554,338.347 339.377 C 339.554 343.403,339.691 343.208,342.405 333.600 C 342.872 331.950,343.632 329.070,344.095 327.200 C 345.258 322.502,344.848 322.759,350.958 322.889 C 357.035 323.018,357.008 322.994,355.786 327.121 C 351.320 342.205,344.765 358.750,341.142 364.086 C 338.129 368.522,335.219 370.000,329.498 370.000 C 322.419 370.000,320.628 368.952,321.730 365.456 C 322.098 364.286,322.400 362.891,322.400 362.354 C 322.400 360.085,323.367 359.525,326.771 359.822 C 332.957 360.361,334.813 357.939,332.354 352.537 C 326.073 338.742,321.230 324.769,322.191 323.215 C 322.493 322.725,333.050 322.634,333.349 323.118 M210.759 332.505 C 206.652 335.241,206.755 345.477,210.916 348.014 C 215.211 350.633,219.173 346.881,219.191 340.179 C 219.210 333.381,215.083 329.625,210.759 332.505 M53.500 339.458 C 52.650 339.702,52.426 348.122,53.256 348.635 C 54.086 349.148,58.961 348.933,61.400 348.276 C 67.010 346.765,67.092 341.268,61.522 340.087 C 58.924 339.536,54.450 339.185,53.500 339.458 M139.601 344.073 C 134.770 345.458,138.693 349.970,143.800 348.902 C 145.381 348.572,145.402 348.544,145.525 346.597 C 145.710 343.692,143.788 342.873,139.601 344.073 M303.097 344.082 C 300.732 344.710,300.433 347.316,302.605 348.379 C 303.736 348.932,308.197 349.137,308.676 348.658 C 309.298 348.035,309.255 344.912,308.615 344.272 C 307.861 343.518,305.524 343.437,303.097 344.082 " stroke="none" fill="#047cbc" fill-rule="evenodd"></path><path id="path2" d="M90.973 113.741 C 90.813 114.149,90.895 148.106,91.154 189.201 L 91.625 263.919 92.518 266.460 C 95.822 275.869,101.459 281.504,111.000 284.937 C 113.478 285.828,176.906 286.144,183.200 285.296 L 185.400 285.000 185.526 283.246 C 185.666 281.286,186.209 280.538,187.635 280.336 C 188.405 280.228,188.626 279.927,188.729 278.852 C 188.830 277.794,189.452 276.925,191.629 274.799 C 193.153 273.311,194.400 271.814,194.400 271.474 C 194.400 271.133,194.760 270.740,195.200 270.600 C 195.640 270.460,196.000 269.998,196.000 269.573 C 196.000 269.148,196.270 268.800,196.600 268.800 C 196.930 268.800,197.200 268.632,197.200 268.427 C 197.200 268.222,197.560 267.940,198.000 267.800 C 198.595 267.611,198.800 267.195,198.800 266.177 C 198.800 265.176,199.124 264.498,200.000 263.660 C 200.660 263.029,201.200 262.258,201.200 261.945 C 201.200 261.632,201.582 261.112,202.049 260.788 C 203.919 259.492,204.800 258.215,204.800 256.800 C 204.800 256.121,205.025 255.295,205.300 254.964 C 206.533 253.478,207.665 252.400,207.991 252.400 C 208.186 252.400,208.457 252.049,208.594 251.620 C 208.730 251.192,209.192 250.730,209.620 250.594 C 210.049 250.457,210.400 250.064,210.400 249.719 C 210.400 249.374,210.850 248.675,211.400 248.165 C 211.950 247.655,212.400 246.979,212.400 246.662 C 212.400 246.346,212.850 245.974,213.400 245.836 C 214.191 245.637,214.400 245.332,214.400 244.373 C 214.400 243.470,214.883 242.663,216.300 241.200 C 218.776 238.643,219.200 238.119,219.200 237.617 C 219.200 237.388,219.380 237.200,219.600 237.200 C 219.820 237.200,220.000 236.848,220.000 236.418 C 220.000 235.841,220.367 235.567,221.400 235.374 C 222.413 235.184,222.800 234.902,222.800 234.355 C 222.800 233.940,222.980 233.600,223.200 233.600 C 223.420 233.600,223.600 233.255,223.600 232.833 C 223.600 231.536,224.050 230.800,224.843 230.800 C 225.417 230.800,225.600 230.511,225.600 229.600 C 225.600 228.587,225.756 228.400,226.600 228.400 C 227.448 228.400,227.600 228.214,227.600 227.183 C 227.600 225.852,227.719 225.673,230.500 222.800 C 231.545 221.721,232.400 220.470,232.400 220.019 C 232.400 219.558,232.662 219.200,233.000 219.200 C 233.330 219.200,233.600 219.032,233.600 218.827 C 233.600 218.622,233.960 218.340,234.400 218.200 C 234.964 218.021,235.200 217.595,235.200 216.756 C 235.200 215.465,235.562 214.907,237.686 212.919 C 238.558 212.103,239.200 211.249,239.200 210.905 C 239.200 210.724,239.559 210.318,239.998 210.001 C 240.437 209.685,240.907 208.835,241.043 208.113 C 241.222 207.159,241.504 206.800,242.073 206.800 C 243.220 206.800,244.000 205.832,244.000 204.410 C 244.000 203.446,244.455 202.707,246.000 201.162 C 247.100 200.062,248.000 198.940,248.000 198.669 C 248.000 198.398,248.360 197.917,248.800 197.600 C 249.240 197.283,249.600 196.793,249.600 196.512 C 249.600 196.230,249.788 196.000,250.018 196.000 C 250.824 196.000,252.400 194.027,252.400 193.018 C 252.400 192.307,253.124 191.276,254.800 189.600 C 256.133 188.267,257.200 186.844,257.200 186.400 C 257.200 185.960,257.393 185.600,257.629 185.600 C 258.182 185.600,259.200 184.582,259.200 184.029 C 259.200 183.793,259.358 183.600,259.550 183.600 C 259.743 183.600,260.009 183.055,260.142 182.390 C 260.378 181.212,262.004 179.200,262.721 179.200 C 263.539 179.200,264.800 177.636,264.800 176.622 C 264.800 175.887,265.316 175.026,266.400 173.953 C 267.280 173.082,268.000 172.003,268.000 171.556 C 268.000 170.588,268.764 169.743,269.824 169.539 C 270.246 169.457,270.657 169.046,270.739 168.624 C 270.909 167.737,271.749 166.800,272.371 166.800 C 272.607 166.800,272.800 166.170,272.800 165.400 C 272.800 164.630,272.971 164.000,273.181 164.000 C 274.458 164.000,277.679 159.843,277.458 158.480 C 277.205 156.919,271.374 150.844,267.978 148.603 C 266.975 147.941,265.625 146.988,264.978 146.484 C 262.694 144.709,259.378 142.705,257.482 141.956 C 256.427 141.539,255.077 140.839,254.482 140.401 C 253.887 139.963,252.320 139.227,251.000 138.765 C 249.680 138.304,248.420 137.782,248.200 137.606 C 247.713 137.216,243.317 136.030,240.656 135.570 C 238.443 135.188,236.966 134.354,236.631 133.297 C 235.988 131.272,211.470 130.557,164.800 131.202 C 113.772 131.907,113.938 131.908,110.400 130.816 C 101.965 128.211,94.178 121.388,91.787 114.506 C 91.356 113.267,91.212 113.131,90.973 113.741 " stroke="none" fill="#28afee" fill-rule="evenodd"></path><path id="path3" d="M38.400 128.351 C 38.400 227.108,38.490 247.177,38.936 247.547 C 39.307 247.855,44.932 248.024,57.236 248.096 L 75.000 248.200 75.103 270.885 L 75.207 293.571 76.758 293.989 C 79.268 294.665,311.800 294.360,312.480 293.680 C 313.125 293.035,313.453 34.615,312.810 33.600 C 312.483 33.085,309.721 32.972,293.315 32.800 L 274.200 32.600 274.094 21.100 C 273.996 10.491,273.934 9.600,273.294 9.606 C 272.805 9.610,272.746 9.705,273.094 9.926 C 273.463 10.160,273.614 13.167,273.694 21.820 L 273.800 33.400 292.564 33.504 C 305.607 33.576,311.491 33.744,311.864 34.053 C 312.631 34.690,312.667 291.484,311.900 292.526 C 311.431 293.162,304.011 293.198,193.800 293.102 L 76.200 293.000 76.097 270.637 C 76.024 254.931,75.861 248.114,75.548 247.737 C 75.187 247.303,71.728 247.200,57.431 247.200 C 44.220 247.200,39.639 247.079,39.280 246.720 C 38.581 246.021,38.581 10.779,39.280 10.080 C 39.653 9.707,39.609 9.600,39.080 9.600 C 38.442 9.600,38.400 16.852,38.400 128.351 M115.800 33.969 C 103.101 35.172,92.430 45.491,90.400 58.532 C 89.901 61.735,89.797 163.761,90.291 164.524 C 90.461 164.786,90.690 187.230,90.800 214.400 C 91.015 267.612,90.917 265.089,92.923 269.000 C 96.003 275.007,96.453 275.641,100.084 279.105 C 102.495 281.405,102.797 281.609,106.614 283.520 C 109.492 284.961,113.576 286.239,112.000 285.206 C 111.670 284.989,111.130 284.809,110.800 284.804 C 110.470 284.799,108.496 283.973,106.413 282.967 C 99.991 279.864,94.888 273.754,92.412 266.200 C 91.118 262.250,90.317 98.193,91.426 64.200 C 91.912 49.309,99.242 39.405,112.400 35.861 C 116.642 34.718,182.588 34.317,189.600 35.391 C 196.687 36.476,205.873 39.061,208.347 40.666 C 208.868 41.004,210.668 41.985,212.347 42.846 C 227.743 50.743,240.265 67.813,244.443 86.600 C 246.227 94.623,245.622 111.437,243.378 116.198 C 243.066 116.859,242.358 118.917,241.805 120.772 C 240.906 123.787,237.795 130.576,236.702 131.912 C 235.633 133.216,238.445 135.667,240.887 135.560 C 241.455 135.535,241.207 135.381,240.231 135.152 C 237.109 134.420,237.105 134.340,239.902 128.400 C 255.535 95.193,242.930 57.311,210.770 40.847 C 208.223 39.543,205.523 38.286,204.770 38.055 C 204.016 37.823,202.320 37.244,201.000 36.768 C 199.680 36.292,196.530 35.447,194.000 34.890 L 189.400 33.877 154.000 33.791 C 134.530 33.743,117.340 33.824,115.800 33.969 M113.672 286.060 C 114.182 286.203,119.820 286.306,126.200 286.288 C 132.580 286.270,136.990 286.202,136.000 286.137 C 132.137 285.881,112.796 285.815,113.672 286.060 M85.610 308.074 C 79.755 312.052,82.067 320.000,89.079 320.000 C 97.569 320.000,97.709 307.878,89.226 307.285 C 87.385 307.156,86.759 307.293,85.610 308.074 M167.800 307.854 C 166.040 308.191,164.330 308.606,164.000 308.776 C 163.020 309.284,162.895 356.782,163.872 357.500 C 164.311 357.822,165.990 358.000,168.587 358.000 C 174.553 358.000,174.400 358.192,174.400 350.715 C 174.400 344.685,174.401 344.677,175.207 345.406 C 176.301 346.396,181.336 353.110,182.102 354.600 C 183.726 357.758,184.260 358.000,189.607 358.000 C 194.641 358.000,196.000 357.671,196.000 356.452 C 196.000 354.695,189.827 345.731,185.000 340.480 C 182.809 338.096,182.754 338.352,186.261 334.676 C 197.495 322.902,197.518 322.804,189.020 322.792 L 183.400 322.785 178.918 327.492 L 174.437 332.200 174.412 320.400 C 174.382 305.978,174.679 306.540,167.800 307.854 M91.074 308.427 C 96.771 310.585,95.220 319.200,89.133 319.200 C 86.614 319.200,84.536 318.022,83.754 316.152 C 81.732 311.313,86.212 306.585,91.074 308.427 M173.506 320.946 C 173.590 330.759,173.716 333.200,174.138 333.200 C 174.621 333.200,177.104 330.742,182.138 325.280 L 184.077 323.177 189.106 323.288 C 192.544 323.365,194.184 323.550,194.292 323.875 C 194.437 324.312,186.520 333.456,183.643 336.175 C 181.955 337.770,182.051 338.259,184.640 341.230 C 189.612 346.933,195.447 355.578,195.041 356.638 C 194.750 357.397,185.665 357.452,184.732 356.700 C 184.391 356.425,182.835 354.310,181.275 352.000 C 174.368 341.776,173.600 341.568,173.600 349.920 C 173.600 354.302,173.453 356.387,173.120 356.720 C 172.539 357.301,165.295 357.374,164.400 356.809 C 163.570 356.284,163.293 312.004,164.111 310.400 C 164.552 309.534,165.101 309.315,168.210 308.769 C 173.879 307.773,173.382 306.631,173.506 320.946 M43.949 312.982 C 42.931 313.262,41.896 313.617,41.649 313.770 C 40.768 314.315,41.040 357.086,41.928 357.561 C 44.332 358.848,62.210 359.184,66.200 358.018 C 73.849 355.782,77.359 351.509,77.386 344.400 C 77.403 339.772,76.557 337.592,73.738 335.004 L 71.866 333.285 73.121 331.700 C 78.607 324.773,74.471 315.960,64.365 313.045 C 61.520 312.224,46.861 312.179,43.949 312.982 M105.600 313.083 C 104.170 313.409,102.730 313.813,102.400 313.982 C 101.880 314.247,101.800 316.663,101.800 332.044 L 101.800 349.800 102.837 352.000 C 105.057 356.707,108.102 358.443,114.608 358.712 C 122.229 359.026,125.436 357.830,125.058 354.816 C 124.185 347.850,123.969 347.583,119.915 348.491 C 113.815 349.856,113.000 348.819,113.000 339.690 L 113.000 332.600 118.082 332.400 C 124.280 332.156,124.058 332.356,123.915 327.165 L 123.800 323.000 118.400 322.800 L 113.000 322.600 112.800 318.000 C 112.531 311.812,112.190 311.580,105.600 313.083 M255.019 313.118 C 252.291 314.058,252.362 313.392,252.489 336.630 C 252.620 360.439,251.947 358.000,258.387 358.000 C 264.633 358.000,264.400 358.303,264.400 350.177 L 264.400 343.600 268.554 343.600 C 280.601 343.600,287.722 337.896,287.779 328.200 C 287.827 320.065,284.675 315.914,276.525 313.383 C 272.429 312.110,258.443 311.938,255.019 313.118 M63.199 313.800 C 73.548 315.977,77.979 324.929,72.050 331.682 C 70.457 333.496,70.396 333.267,73.170 335.927 C 79.446 341.947,77.435 352.173,69.237 355.926 C 63.925 358.358,45.197 358.907,42.500 356.709 C 41.770 356.114,41.772 315.088,42.502 314.481 C 44.021 313.221,58.224 312.753,63.199 313.800 M111.476 313.700 C 111.654 313.975,111.890 316.180,112.000 318.600 L 112.200 323.000 117.175 323.113 C 123.312 323.252,123.200 323.168,123.200 327.641 C 123.200 331.841,123.650 331.555,116.800 331.702 L 112.200 331.800 112.079 338.400 C 111.883 349.024,113.799 351.323,121.102 349.228 C 122.891 348.715,123.370 349.318,123.947 352.809 C 124.643 357.023,123.070 358.000,115.599 358.000 C 103.691 358.000,102.011 354.404,102.057 329.000 C 102.085 313.503,101.737 314.764,106.216 313.943 C 110.761 313.109,111.084 313.094,111.476 313.700 M274.474 313.806 C 280.603 315.075,284.924 318.267,286.193 322.462 C 289.828 334.481,282.484 342.747,268.133 342.790 C 263.248 342.805,263.600 342.263,263.600 349.763 C 263.600 357.621,263.895 357.200,258.400 357.200 C 255.636 357.200,253.993 357.033,253.680 356.720 C 252.968 356.008,252.990 315.073,253.702 314.481 C 255.227 313.216,269.399 312.755,274.474 313.806 M52.037 322.332 C 51.437 323.452,51.471 329.311,52.080 329.920 C 52.651 330.491,58.249 330.555,60.569 330.017 C 64.978 328.995,66.240 324.419,62.644 322.498 C 60.559 321.384,52.610 321.260,52.037 322.332 M132.644 322.373 C 128.886 323.410,128.871 323.443,129.754 328.450 C 130.475 332.543,130.469 332.536,133.152 332.252 C 141.841 331.331,143.562 331.549,145.006 333.754 C 146.110 335.438,145.714 335.620,140.595 335.775 C 129.388 336.113,123.568 342.626,126.690 351.335 C 128.804 357.233,133.298 359.071,144.600 358.659 C 157.348 358.194,156.789 358.784,156.786 345.800 C 156.783 329.654,155.643 326.026,149.600 322.930 C 146.648 321.418,137.230 321.108,132.644 322.373 M207.789 322.353 C 198.803 325.590,193.382 338.218,197.208 347.000 C 197.399 347.440,197.912 348.613,198.346 349.607 C 203.533 361.480,221.841 362.151,228.093 350.697 C 236.623 335.069,223.468 316.705,207.789 322.353 M263.776 322.118 C 263.667 322.404,263.627 325.239,263.689 328.418 L 263.800 334.200 267.600 334.171 C 274.399 334.118,276.643 332.347,276.320 327.285 C 276.052 323.064,273.735 321.607,267.287 321.602 C 264.942 321.601,263.917 321.751,263.776 322.118 M296.400 322.316 C 292.466 323.351,292.143 324.003,293.249 328.694 C 294.162 332.563,294.141 332.542,296.716 332.244 C 304.780 331.311,307.017 331.538,308.247 333.416 C 309.514 335.349,309.016 335.625,304.000 335.773 C 293.364 336.086,288.168 341.377,289.970 350.058 C 291.510 357.475,299.428 360.278,313.471 358.376 C 320.646 357.405,320.395 357.853,320.398 346.027 C 320.402 329.971,319.153 325.981,313.218 323.086 C 309.921 321.477,301.122 321.075,296.400 322.316 M62.080 323.189 C 66.757 325.446,62.833 329.496,55.900 329.568 L 52.800 329.600 52.800 326.267 C 52.800 324.433,52.935 322.796,53.100 322.627 C 53.568 322.150,60.873 322.607,62.080 323.189 M147.994 323.261 C 154.633 325.503,155.600 328.135,155.600 343.966 C 155.600 357.780,156.018 356.574,150.944 357.405 C 135.730 359.899,126.800 356.104,126.800 347.144 C 126.800 340.493,132.140 336.700,141.600 336.631 L 146.200 336.598 146.151 335.057 C 146.033 331.380,141.731 329.934,134.669 331.196 C 131.145 331.825,130.917 331.612,130.564 327.356 C 130.253 323.612,130.195 323.692,133.773 322.979 C 138.044 322.128,145.051 322.267,147.994 323.261 M218.450 323.010 C 224.839 325.237,228.655 330.057,229.699 337.215 C 232.829 358.689,204.996 366.934,198.002 346.605 C 193.193 332.628,205.454 318.480,218.450 323.010 M271.571 322.831 C 274.474 323.454,275.600 324.906,275.600 328.028 C 275.600 331.799,272.763 333.530,266.500 333.583 L 264.400 333.600 264.400 328.267 C 264.400 325.333,264.520 322.813,264.667 322.667 C 265.082 322.251,269.341 322.353,271.571 322.831 M312.854 323.897 C 315.589 325.245,316.867 326.637,318.275 329.800 C 319.218 331.920,319.612 354.931,318.725 356.079 C 317.467 357.707,303.202 358.684,298.600 357.458 C 293.047 355.978,290.400 352.541,290.400 346.810 C 290.400 340.302,295.546 336.715,305.000 336.635 L 309.400 336.597 309.527 335.270 C 309.846 331.958,307.232 330.576,301.400 330.971 C 293.947 331.476,294.678 331.572,294.360 330.044 C 293.806 327.381,293.599 324.592,293.918 324.104 C 295.283 322.017,308.739 321.870,312.854 323.897 M83.680 323.280 C 83.322 323.638,83.200 327.959,83.200 340.257 L 83.200 356.755 84.089 357.377 C 85.540 358.394,92.939 358.261,94.000 357.200 C 94.920 356.280,95.276 325.237,94.386 323.574 C 93.884 322.636,84.580 322.380,83.680 323.280 M322.191 323.215 C 321.230 324.769,326.073 338.742,332.354 352.537 C 334.813 357.939,332.957 360.361,326.771 359.822 C 323.367 359.525,322.400 360.085,322.400 362.354 C 322.400 362.891,322.098 364.286,321.730 365.456 C 320.628 368.952,322.419 370.000,329.498 370.000 C 335.219 370.000,338.129 368.522,341.142 364.086 C 344.196 359.589,348.627 349.015,352.996 335.800 C 357.588 321.909,357.765 323.033,350.958 322.889 C 344.848 322.759,345.258 322.502,344.095 327.200 C 343.632 329.070,342.872 331.950,342.405 333.600 C 339.691 343.208,339.554 343.403,338.347 339.377 C 337.501 336.554,336.145 332.277,335.565 330.600 C 335.337 329.940,334.789 328.058,334.348 326.418 C 333.907 324.778,333.458 323.293,333.349 323.118 C 333.050 322.634,322.493 322.725,322.191 323.215 M93.371 323.829 C 94.322 324.779,94.322 355.621,93.371 356.571 C 92.579 357.364,85.247 357.487,84.480 356.720 C 83.664 355.904,83.805 324.652,84.629 323.829 C 85.110 323.347,86.131 323.200,89.000 323.200 C 91.869 323.200,92.890 323.347,93.371 323.829 M332.571 323.829 C 332.917 324.174,333.200 324.759,333.200 325.129 C 333.201 326.217,338.397 342.511,339.081 343.568 L 339.707 344.535 340.213 343.568 C 340.706 342.622,344.885 328.238,345.390 325.741 C 345.851 323.469,346.595 323.157,351.248 323.285 C 355.058 323.391,355.409 323.466,355.515 324.205 C 355.726 325.672,348.940 345.667,346.024 352.174 C 345.623 353.068,344.628 355.329,343.813 357.199 C 340.957 363.747,337.822 367.448,334.040 368.737 C 330.337 369.999,322.400 368.907,322.400 367.136 C 322.400 365.529,323.683 360.798,324.132 360.746 C 324.389 360.717,325.999 360.736,327.708 360.788 C 331.289 360.897,333.183 359.896,334.257 357.326 C 334.817 355.985,334.768 355.819,331.964 349.478 C 326.108 336.241,322.095 324.292,323.257 323.556 C 324.282 322.907,331.871 323.129,332.571 323.829 M210.359 331.701 C 204.165 335.805,206.584 349.600,213.497 349.600 C 218.098 349.600,220.528 345.211,219.864 338.100 C 219.306 332.130,214.547 328.926,210.359 331.701 M215.755 332.155 C 221.541 334.573,219.758 348.805,213.669 348.799 C 209.906 348.795,207.891 345.780,207.891 340.154 C 207.891 333.459,211.089 330.206,215.755 332.155 M52.100 339.243 C 51.398 339.968,51.413 347.992,52.118 348.956 C 52.819 349.914,58.933 349.967,62.113 349.042 C 67.279 347.541,68.061 342.141,63.465 339.717 C 61.785 338.831,52.859 338.459,52.100 339.243 M61.522 340.087 C 67.092 341.268,67.010 346.765,61.400 348.276 C 58.961 348.933,54.086 349.148,53.256 348.635 C 52.426 348.122,52.650 339.702,53.500 339.458 C 54.450 339.185,58.924 339.536,61.522 340.087 M139.367 343.230 C 133.276 344.999,137.136 350.327,144.000 349.625 L 146.200 349.400 146.318 346.497 C 146.465 342.854,144.250 341.812,139.367 343.230 M302.605 343.403 C 297.406 345.254,299.720 349.676,305.871 349.644 C 309.640 349.624,310.000 349.339,310.000 346.374 C 310.000 342.889,307.203 341.766,302.605 343.403 M144.949 344.113 C 146.471 345.226,145.683 348.509,143.800 348.902 C 139.817 349.735,136.342 347.396,137.907 344.937 C 138.631 343.799,143.707 343.205,144.949 344.113 M308.615 344.272 C 309.115 344.772,309.237 345.394,309.091 346.692 C 308.841 348.908,308.895 348.867,306.129 348.919 C 302.363 348.990,300.759 347.810,301.362 345.409 C 301.767 343.794,307.274 342.931,308.615 344.272 M352.200 404.000 C 351.497 404.776,351.501 404.800,352.338 404.800 C 352.933 404.800,353.200 404.553,353.200 404.000 C 353.200 403.560,353.138 403.200,353.062 403.200 C 352.986 403.200,352.598 403.560,352.200 404.000 M5.454 404.202 C 5.315 404.565,5.456 404.800,5.813 404.800 C 6.460 404.800,6.607 404.175,6.042 403.826 C 5.845 403.704,5.581 403.874,5.454 404.202 " stroke="none" fill="#4caee6" fill-rule="evenodd"></path><path id="path4" d="M97.932 9.900 C 130.125 9.956,182.685 9.956,214.732 9.900 C 246.780 9.844,220.440 9.797,156.200 9.797 C 91.960 9.797,65.740 9.844,97.932 9.900 M38.997 128.400 C 38.997 193.410,39.044 220.005,39.100 187.500 C 39.156 154.995,39.156 101.805,39.100 69.300 C 39.044 36.795,38.997 63.390,38.997 128.400 M115.107 33.890 C 115.826 33.979,116.906 33.977,117.507 33.886 C 118.108 33.795,117.520 33.722,116.200 33.724 C 114.880 33.726,114.388 33.801,115.107 33.890 M185.700 33.887 C 186.305 33.978,187.295 33.978,187.900 33.887 C 188.505 33.795,188.010 33.720,186.800 33.720 C 185.590 33.720,185.095 33.795,185.700 33.887 M110.800 34.600 C 110.030 34.897,109.670 35.139,110.000 35.139 C 110.330 35.139,111.230 34.897,112.000 34.600 C 112.770 34.303,113.130 34.061,112.800 34.061 C 112.470 34.061,111.570 34.303,110.800 34.600 M103.900 37.608 C 101.311 39.234,101.482 39.505,104.100 37.926 C 106.617 36.408,106.630 36.398,106.167 36.408 C 105.965 36.412,104.945 36.952,103.900 37.608 M98.334 42.156 C 96.718 43.782,94.981 45.852,94.473 46.756 C 93.250 48.932,93.642 48.881,94.922 46.698 C 95.470 45.762,97.234 43.692,98.840 42.098 C 100.446 40.504,101.650 39.200,101.516 39.200 C 101.381 39.200,99.949 40.530,98.334 42.156 M92.581 50.037 C 92.229 50.718,92.012 51.345,92.099 51.432 C 92.186 51.519,92.556 50.962,92.922 50.195 C 93.744 48.470,93.459 48.338,92.581 50.037 M89.468 101.700 C 89.094 164.222,89.727 260.962,90.533 264.697 C 93.177 276.938,102.866 285.604,115.963 287.440 C 121.241 288.180,216.881 287.952,228.400 287.172 C 233.323 286.838,241.481 285.568,242.417 284.989 C 242.571 284.894,243.665 284.549,244.848 284.223 C 267.330 278.015,287.759 258.829,295.661 236.500 C 304.585 211.285,300.809 184.651,285.297 163.400 C 275.036 149.342,256.067 136.595,241.855 134.207 C 241.006 134.064,239.873 133.509,239.337 132.973 C 238.152 131.788,238.149 131.788,237.863 132.879 C 237.566 134.018,238.146 134.683,239.728 135.017 C 244.197 135.959,253.788 139.373,255.146 140.505 C 255.506 140.805,256.610 141.396,257.600 141.819 C 258.590 142.242,260.154 143.131,261.075 143.794 C 261.996 144.457,263.293 145.360,263.958 145.800 C 270.754 150.298,277.098 156.262,277.460 158.494 C 277.679 159.844,274.449 164.000,273.181 164.000 C 272.971 164.000,272.800 164.630,272.800 165.400 C 272.800 166.170,272.607 166.800,272.371 166.800 C 271.749 166.800,270.909 167.737,270.739 168.624 C 270.657 169.046,270.246 169.457,269.824 169.539 C 268.764 169.743,268.000 170.588,268.000 171.556 C 268.000 172.003,267.280 173.082,266.400 173.953 C 265.316 175.026,264.800 175.887,264.800 176.622 C 264.800 177.636,263.539 179.200,262.721 179.200 C 262.004 179.200,260.378 181.212,260.142 182.390 C 260.009 183.055,259.743 183.600,259.550 183.600 C 259.358 183.600,259.200 183.793,259.200 184.029 C 259.200 184.582,258.182 185.600,257.629 185.600 C 257.393 185.600,257.200 185.960,257.200 186.400 C 257.200 186.844,256.133 188.267,254.800 189.600 C 253.124 191.276,252.400 192.307,252.400 193.018 C 252.400 194.027,250.824 196.000,250.018 196.000 C 249.788 196.000,249.600 196.230,249.600 196.512 C 249.600 196.793,249.240 197.283,248.800 197.600 C 248.360 197.917,248.000 198.398,248.000 198.669 C 248.000 198.940,247.100 200.062,246.000 201.162 C 244.455 202.707,244.000 203.446,244.000 204.410 C 244.000 205.832,243.220 206.800,242.073 206.800 C 241.504 206.800,241.222 207.159,241.043 208.113 C 240.907 208.835,240.437 209.685,239.998 210.001 C 239.559 210.318,239.200 210.730,239.200 210.917 C 239.200 211.104,238.975 211.508,238.700 211.815 C 237.831 212.783,237.254 213.385,236.719 213.881 C 235.549 214.965,235.200 215.625,235.200 216.756 C 235.200 217.595,234.964 218.021,234.400 218.200 C 233.960 218.340,233.600 218.622,233.600 218.827 C 233.600 219.032,233.330 219.200,233.000 219.200 C 232.662 219.200,232.400 219.558,232.400 220.019 C 232.400 220.470,231.545 221.721,230.500 222.800 C 227.719 225.673,227.600 225.852,227.600 227.183 C 227.600 228.214,227.448 228.400,226.600 228.400 C 225.756 228.400,225.600 228.587,225.600 229.600 C 225.600 230.511,225.417 230.800,224.843 230.800 C 224.050 230.800,223.600 231.536,223.600 232.833 C 223.600 233.255,223.420 233.600,223.200 233.600 C 222.980 233.600,222.800 233.940,222.800 234.355 C 222.800 234.902,222.413 235.184,221.400 235.374 C 220.367 235.567,220.000 235.841,220.000 236.418 C 220.000 236.848,219.820 237.200,219.600 237.200 C 219.380 237.200,219.200 237.388,219.200 237.617 C 219.200 238.119,218.776 238.643,216.300 241.200 C 214.883 242.663,214.400 243.470,214.400 244.373 C 214.400 245.332,214.191 245.637,213.400 245.836 C 212.850 245.974,212.400 246.346,212.400 246.662 C 212.400 246.979,211.950 247.655,211.400 248.165 C 210.850 248.675,210.400 249.374,210.400 249.719 C 210.400 250.064,210.049 250.457,209.620 250.594 C 209.192 250.730,208.730 251.192,208.594 251.620 C 208.457 252.049,208.186 252.400,207.991 252.400 C 207.665 252.400,206.533 253.478,205.300 254.964 C 205.025 255.295,204.800 256.127,204.800 256.812 C 204.800 257.497,204.575 258.308,204.300 258.615 C 204.025 258.921,203.599 259.403,203.354 259.686 C 203.108 259.969,202.523 260.465,202.054 260.788 C 201.584 261.112,201.200 261.632,201.200 261.945 C 201.200 262.258,200.660 263.029,200.000 263.660 C 199.124 264.498,198.800 265.176,198.800 266.177 C 198.800 267.195,198.595 267.611,198.000 267.800 C 197.560 267.940,197.200 268.222,197.200 268.427 C 197.200 268.632,196.930 268.800,196.600 268.800 C 196.270 268.800,196.000 269.148,196.000 269.573 C 196.000 269.998,195.640 270.460,195.200 270.600 C 194.760 270.740,194.400 271.133,194.400 271.474 C 194.400 271.814,193.153 273.311,191.629 274.799 C 189.452 276.925,188.830 277.794,188.729 278.852 C 188.626 279.927,188.405 280.228,187.635 280.336 C 186.209 280.538,185.666 281.286,185.526 283.246 L 185.400 285.000 183.200 285.257 C 181.990 285.398,166.321 285.743,148.381 286.023 L 115.762 286.531 112.317 285.653 C 104.582 283.680,97.952 278.656,94.600 272.228 C 90.626 264.609,91.028 270.730,90.800 214.400 C 90.690 187.230,90.461 164.786,90.291 164.524 C 90.121 164.262,89.981 140.727,89.979 112.224 C 89.977 83.721,89.917 60.400,89.845 60.400 C 89.773 60.400,89.603 78.985,89.468 101.700 M246.093 89.600 C 246.093 90.370,246.175 90.685,246.276 90.300 C 246.376 89.915,246.376 89.285,246.276 88.900 C 246.175 88.515,246.093 88.830,246.093 89.600 M246.501 96.200 C 246.505 97.080,246.587 97.393,246.683 96.895 C 246.779 96.398,246.775 95.678,246.675 95.295 C 246.575 94.913,246.496 95.320,246.501 96.200 M246.501 102.600 C 246.505 103.480,246.587 103.793,246.683 103.295 C 246.779 102.798,246.775 102.078,246.675 101.695 C 246.575 101.313,246.496 101.720,246.501 102.600 M240.875 126.219 C 239.670 128.700,239.805 129.047,241.046 126.661 C 241.601 125.594,241.987 124.653,241.903 124.570 C 241.819 124.486,241.357 125.228,240.875 126.219 M163.787 333.400 C 163.787 345.720,163.838 350.818,163.900 344.728 C 163.962 338.639,163.962 328.559,163.900 322.328 C 163.838 316.098,163.787 321.080,163.787 333.400 M111.746 318.200 C 111.747 320.400,111.814 321.249,111.895 320.087 C 111.976 318.924,111.976 317.124,111.893 316.087 C 111.811 315.049,111.745 316.000,111.746 318.200 M102.179 329.600 C 102.179 336.970,102.233 339.985,102.299 336.300 C 102.365 332.615,102.365 326.585,102.299 322.900 C 102.233 319.215,102.179 322.230,102.179 329.600 M84.182 340.400 C 84.182 349.310,84.235 352.955,84.300 348.500 C 84.364 344.045,84.364 336.755,84.300 332.300 C 84.235 327.845,84.182 331.490,84.182 340.400 M93.782 340.200 C 93.782 349.000,93.835 352.543,93.900 348.073 C 93.964 343.604,93.964 336.404,93.899 332.073 C 93.835 327.743,93.782 331.400,93.782 340.200 M139.105 330.683 C 139.602 330.779,140.322 330.775,140.705 330.675 C 141.087 330.575,140.680 330.496,139.800 330.501 C 138.920 330.505,138.607 330.587,139.105 330.683 M302.500 330.676 C 302.885 330.776,303.515 330.776,303.900 330.676 C 304.285 330.575,303.970 330.493,303.200 330.493 C 302.430 330.493,302.115 330.575,302.500 330.676 M175.563 332.245 C 175.269 332.599,174.662 333.038,174.214 333.219 C 173.640 333.452,173.586 333.557,174.030 333.575 C 174.377 333.589,175.083 333.150,175.600 332.600 C 176.117 332.050,176.440 331.600,176.319 331.600 C 176.197 331.600,175.857 331.890,175.563 332.245 M111.759 338.400 C 111.759 341.590,111.821 342.895,111.897 341.300 C 111.973 339.705,111.973 337.095,111.897 335.500 C 111.821 333.905,111.759 335.210,111.759 338.400 M140.505 336.687 C 141.114 336.779,142.014 336.777,142.505 336.682 C 142.997 336.587,142.500 336.511,141.400 336.514 C 140.300 336.517,139.897 336.595,140.505 336.687 M303.700 336.687 C 304.305 336.778,305.295 336.778,305.900 336.687 C 306.505 336.595,306.010 336.520,304.800 336.520 C 303.590 336.520,303.095 336.595,303.700 336.687 M146.501 346.200 C 146.505 347.080,146.587 347.393,146.683 346.895 C 146.779 346.398,146.775 345.678,146.675 345.295 C 146.575 344.913,146.496 345.320,146.501 346.200 M53.905 349.883 C 54.402 349.979,55.122 349.975,55.505 349.875 C 55.887 349.775,55.480 349.696,54.600 349.701 C 53.720 349.705,53.407 349.787,53.905 349.883 M116.705 349.883 C 117.202 349.979,117.922 349.975,118.305 349.875 C 118.687 349.775,118.280 349.696,117.400 349.701 C 116.520 349.705,116.207 349.787,116.705 349.883 M143.105 349.883 C 143.602 349.979,144.322 349.975,144.705 349.875 C 145.087 349.775,144.680 349.696,143.800 349.701 C 142.920 349.705,142.607 349.787,143.105 349.883 M306.305 349.883 C 306.802 349.979,307.522 349.975,307.905 349.875 C 308.287 349.775,307.880 349.696,307.000 349.701 C 306.120 349.705,305.807 349.787,306.305 349.883 " stroke="none" fill="#4fc4f4" fill-rule="evenodd"></path></g></svg>